<?xml version="1.0" encoding="UTF-8" standalone="no"?> <svg id="Layer_1" data-name="Layer 1" xmlns="http://www.w3.org/2000/svg" viewBox="0 0 128 128"><defs><style>.cls-1{fill:#2d3e50;}.cls-2{fill:#2e79bd;}</style></defs><title>n</title><path class="cls-1" d="M125.73417,108.6051c-6.47812-24.32538-10.83081-47.72128-12.69544-70.01768a3.13411,3.13411,0,0,0-3.10587-2.60141H91.3597V30.92619a15.27366,15.27366,0,1,0-30.54731,0V35.986H42.23893a3.13418,3.13418,0,0,0-3.10587,2.60141q-.357,4.25068-.83309,8.55245l4.415-2.02337a10.17421,10.17421,0,0,1,2.6808-.8218c.06234-.51575.10768-1.0315.15869-1.54158H60.81239V48.0094a4.43526,4.43526,0,1,0,4.89935,0V42.75313H86.46036v5.25623a4.43528,4.43528,0,1,0,4.89935.00013V42.75313h15.25758a412.78587,412.78587,0,0,0,11.32956,62.82544H69.08076v6.76712h53.54188a3.1254,3.1254,0,0,0,2.40872-1.13918A2.97578,2.97578,0,0,0,125.73417,108.6051ZM86.46036,35.986H65.71174V30.92619a10.37431,10.37431,0,1,1,20.74862,0Z"/><path class="cls-2" d="M60.19122,60.27915H49.87049a6.40043,6.40043,0,0,0-5.50325-11.55631L35.2424,52.90556l-9.12487-4.18271a6.4015,6.4015,0,0,0-5.50888,11.55631H10.29359a8.10062,8.10062,0,0,0-8.08771,8.09333V75.7517H5.37409v36.59576H65.11067V75.7517h3.16822V68.37249A8.10061,8.10061,0,0,0,60.19122,60.27915ZM36.937,55.86407l8.84145-4.058a3.023,3.023,0,0,1,4.28473,2.74882,3.02714,3.02714,0,0,1-3.02086,3.02081H36.937ZM20.42158,54.55486a2.964,2.964,0,0,1,1.3886-2.54474,2.99641,2.99641,0,0,1,1.62659-.48746,3.03806,3.03806,0,0,1,1.26387.28338l8.84712,4.058v1.71161H23.44244A3.02717,3.02717,0,0,1,20.42158,54.55486Zm38.82316,51.92662H11.24007V75.7517H59.24473Z"/></svg>