<?xml version="1.0" standalone="no"?>
<!DOCTYPE svg PUBLIC "-//W3C//DTD SVG 20010904//EN"
 "http://www.w3.org/TR/2001/REC-SVG-20010904/DTD/svg10.dtd">
<svg version="1.0" xmlns="http://www.w3.org/2000/svg"
 width="1200.000000pt" height="1200.000000pt" viewBox="0 0 1200.000000 1200.000000"
 preserveAspectRatio="xMidYMid meet">

<g transform="translate(0.000000,1200.000000) scale(0.100000,-0.100000)"
fill="#000000" stroke="none">
<path d="M3065 6919 l-310 -9 -502 -502 c-277 -277 -503 -510 -503 -518 0 -8
179 -194 398 -413 311 -311 403 -397 422 -397 20 0 131 106 522 498 l497 497
7 387 c6 356 5 389 -10 413 -25 37 -75 55 -148 53 -35 0 -202 -5 -373 -9z
m271 -237 c45 -36 55 -82 29 -137 -18 -36 -51 -55 -98 -55 -42 0 -75 24 -93
66 -30 72 20 144 99 144 25 0 51 -8 63 -18z m-368 -384 c15 -15 15 -51 0 -66
-7 -7 -41 -12 -81 -12 -62 0 -68 -2 -62 -17 4 -10 12 -30 17 -45 9 -26 14 -28
61 -28 65 0 79 -9 75 -46 -3 -28 -5 -29 -65 -32 -59 -3 -62 -4 -73 -35 -16
-48 -56 -100 -92 -122 -24 -14 -58 -21 -124 -25 l-91 -5 133 -115 c73 -63 136
-121 139 -129 14 -35 -26 -73 -59 -54 -36 20 -376 326 -376 338 0 43 7 45 149
45 152 0 191 12 223 66 l17 29 -167 -3 c-185 -4 -222 3 -222 42 0 13 6 28 13
35 9 6 83 12 198 13 l184 3 -41 43 -42 42 -144 0 c-132 0 -147 2 -163 20 -17
18 -17 21 -1 45 l16 25 283 0 c207 0 286 -3 295 -12z"/>
<path d="M5604 6856 c-18 -14 -19 -27 -16 -297 2 -184 7 -288 14 -296 13 -17
52 -17 66 0 6 7 12 76 14 155 3 143 3 144 31 168 37 32 105 33 133 3 16 -18
19 -40 22 -168 2 -84 8 -152 15 -159 16 -20 60 -10 75 18 10 19 12 60 9 165
-5 154 -17 198 -62 233 -48 38 -155 26 -194 -22 -25 -30 -31 -15 -31 83 0 77
-4 103 -16 115 -19 20 -35 20 -60 2z"/>
<path d="M5191 6828 c-81 -28 -133 -118 -111 -197 20 -76 69 -110 189 -133 67
-12 107 -31 122 -59 28 -53 -28 -102 -118 -102 -42 0 -63 7 -104 32 -54 33
-82 34 -98 3 -29 -56 89 -132 203 -132 128 0 218 74 218 180 0 94 -54 141
-197 170 -103 21 -138 53 -121 108 17 54 130 63 214 17 l53 -29 21 22 c54 54
-38 125 -167 129 -38 1 -85 -3 -104 -9z"/>
<path d="M3936 6808 c-14 -19 -16 -59 -16 -265 0 -133 4 -253 10 -267 7 -20
17 -26 39 -26 16 0 33 6 38 13 4 6 10 93 13 192 l5 180 64 -102 c71 -114 91
-136 118 -131 10 2 51 53 93 116 l75 113 3 -177 c1 -110 7 -183 13 -191 14
-16 61 -17 77 -1 9 9 12 84 12 274 0 229 -2 265 -16 279 -34 34 -56 15 -157
-135 -53 -80 -100 -145 -104 -145 -4 0 -50 65 -102 145 -79 120 -101 146 -123
148 -18 2 -31 -4 -42 -20z"/>
<path d="M4705 6684 c-45 -23 -85 -65 -106 -109 -25 -54 -25 -156 0 -211 37
-82 139 -134 237 -120 104 14 174 88 110 117 -18 9 -32 7 -66 -11 -78 -40
-168 -13 -197 58 l-13 32 153 0 c106 0 157 4 165 12 28 28 -1 133 -51 186 -54
59 -166 81 -232 46z m154 -100 c17 -14 31 -34 31 -45 0 -18 -8 -19 -109 -19
-99 0 -109 2 -104 18 19 71 121 97 182 46z"/>
<path d="M6172 6679 c-97 -48 -144 -169 -110 -283 18 -58 91 -131 148 -146
106 -28 214 16 262 109 63 120 18 270 -97 322 -56 26 -148 25 -203 -2z m168
-84 c46 -24 64 -68 61 -153 -2 -51 -55 -103 -111 -109 -88 -9 -146 56 -138
155 4 48 10 60 41 89 42 38 96 44 147 18z"/>
<path d="M6733 6675 c-42 -25 -42 -25 -53 -5 -12 23 -59 27 -78 8 -9 -9 -12
-87 -12 -288 0 -256 1 -278 18 -293 24 -22 45 -21 65 1 13 14 17 39 17 106 l0
88 38 -24 c52 -32 142 -32 195 0 74 47 117 161 97 259 -30 142 -173 216 -287
148z m136 -80 c35 -18 61 -70 61 -125 0 -102 -86 -166 -171 -126 -84 39 -99
167 -29 238 33 32 91 38 139 13z"/>
<path d="M5635 5607 c-3 -7 -4 -127 -3 -267 l3 -255 90 0 90 0 3 33 3 32 -59
0 -60 0 -1 226 c-1 125 -4 230 -7 235 -8 14 -54 11 -59 -4z"/>
<path d="M6594 5610 c-36 -14 -64 -59 -64 -102 0 -45 11 -70 87 -189 60 -96
75 -147 49 -168 -27 -22 -64 0 -68 41 -3 28 -7 33 -32 36 -16 2 -32 -2 -36 -8
-13 -22 10 -94 37 -119 37 -32 122 -27 152 10 46 58 33 123 -54 255 -68 103
-81 135 -65 163 21 40 80 21 80 -26 0 -19 5 -23 30 -23 28 0 30 3 30 35 0 76
-74 124 -146 95z"/>
<path d="M7130 5613 c-30 -11 -60 -47 -66 -79 -8 -46 7 -84 81 -203 50 -80 65
-113 65 -142 0 -29 -4 -38 -21 -42 -26 -7 -59 25 -59 58 0 22 -4 25 -35 25
-31 0 -35 -3 -35 -25 0 -38 25 -90 51 -109 28 -19 99 -21 121 -3 47 38 60 99
34 161 -8 18 -41 75 -75 127 -68 105 -79 153 -38 168 32 13 57 -4 57 -39 0
-28 3 -30 36 -30 l37 0 -6 43 c-10 72 -79 115 -147 90z"/>
<path d="M7749 5608 c-3 -38 4 -514 8 -520 6 -11 155 -10 171 1 8 4 12 19 10
32 -3 22 -9 24 -60 27 l-58 3 0 219 c0 120 -3 225 -6 234 -7 19 -63 22 -65 4z"/>
<path d="M7982 5353 l3 -268 90 0 90 0 3 33 3 32 -60 0 -61 0 -2 233 -3 232
-33 3 -32 3 2 -268z"/>
<path d="M9644 5606 c-4 -10 -4 -79 -1 -154 4 -75 7 -188 7 -249 l0 -113 90 0
90 0 0 30 c0 30 -1 30 -55 30 l-55 0 0 90 0 90 39 0 c45 0 56 10 46 47 -5 22
-10 25 -45 21 -22 -2 -41 1 -43 7 -3 8 -1 109 2 137 1 4 24 8 53 10 48 3 52 5
55 31 3 24 1 27 -25 27 -16 0 -57 3 -90 6 -53 6 -63 4 -68 -10z"/>
<path d="M9905 5597 c-32 -27 -44 -92 -24 -139 7 -18 36 -69 64 -113 71 -109
77 -121 73 -158 -2 -26 -8 -33 -29 -35 -31 -4 -46 12 -51 53 -2 21 -8 30 -20
29 -10 -1 -25 -2 -34 -3 -14 -1 -16 -9 -11 -47 6 -56 36 -90 88 -99 51 -9 87
10 112 59 18 34 19 44 8 84 -6 24 -38 86 -71 136 -67 104 -81 135 -73 165 7
26 47 38 68 21 8 -7 15 -25 15 -41 0 -26 3 -29 30 -26 17 2 33 6 36 9 12 13
-10 79 -33 103 -35 34 -110 35 -148 2z"/>
<path d="M3980 5523 c-6 -48 -23 -164 -36 -258 -13 -93 -24 -173 -24 -177 0
-4 15 -8 34 -8 l35 0 6 58 c9 80 10 82 49 82 41 0 56 -20 56 -74 0 -52 9 -66
40 -66 16 0 31 3 33 8 2 4 -15 122 -37 262 l-41 255 -51 3 -52 3 -12 -88z m84
-116 c9 -59 16 -112 16 -117 0 -6 -16 -10 -35 -10 -32 0 -34 2 -30 28 6 31 25
192 25 206 0 32 10 -14 24 -107z"/>
<path d="M4362 5348 l3 -263 30 0 30 0 5 120 5 120 43 3 c39 3 42 5 42 33 0
28 -2 29 -45 29 l-46 0 3 78 3 77 53 3 c50 3 52 4 52 33 l0 29 -90 0 -90 0 2
-262z"/>
<path d="M4583 5458 c4 -84 7 -204 7 -266 l0 -113 88 3 87 3 3 33 3 32 -55 0
-56 0 0 89 0 90 43 3 c37 3 42 6 42 28 0 22 -5 26 -45 30 l-45 5 0 65 c-1 36
1 71 3 78 3 7 24 12 59 12 53 0 54 0 51 28 l-3 27 -94 3 -94 3 6 -153z"/>
<path d="M4800 5583 c0 -15 14 -131 30 -258 16 -126 30 -234 30 -238 0 -4 21
-7 47 -5 47 3 48 3 54 43 5 32 18 183 19 218 0 4 4 7 9 7 4 0 11 -51 15 -112
10 -162 9 -158 67 -158 27 0 49 3 49 8 0 4 4 43 10 87 5 44 12 112 15 150 3
39 10 97 15 130 5 33 11 81 14 108 l6 47 -34 0 c-38 0 -40 -4 -51 -135 -12
-141 -28 -286 -31 -283 -2 2 -10 75 -18 163 -26 268 -23 255 -57 255 -22 0
-30 -6 -34 -22 -5 -22 -34 -324 -36 -377 -2 -46 -10 5 -33 204 l-21 190 -33 3
c-29 3 -32 1 -32 -25z"/>
<path d="M5399 5595 c-40 -22 -50 -82 -46 -276 4 -171 10 -196 49 -223 29 -21
97 -20 127 0 27 19 49 68 47 104 -1 21 -7 26 -33 28 -31 3 -33 1 -33 -27 0
-30 -22 -61 -43 -61 -38 1 -42 15 -42 182 -1 200 3 222 35 226 28 4 50 -20 50
-55 0 -19 5 -23 29 -23 17 0 33 5 36 11 12 18 -5 76 -30 103 -20 21 -33 26
-72 26 -26 -1 -60 -7 -74 -15z"/>
<path d="M5861 5346 l-1 -264 35 0 35 0 2 137 c1 75 2 159 3 186 1 28 0 85 -3
128 l-5 77 -33 0 -33 0 0 -264z"/>
<path d="M6039 5595 c-40 -22 -50 -82 -46 -276 4 -171 10 -196 49 -223 29 -21
97 -20 127 0 27 19 49 68 47 104 -1 21 -7 26 -33 28 -31 3 -33 1 -33 -27 0
-30 -22 -61 -43 -61 -38 1 -42 15 -42 182 -1 200 3 222 35 226 28 4 50 -20 50
-55 0 -19 5 -23 29 -23 17 0 33 5 36 11 12 18 -5 76 -30 103 -20 21 -33 26
-72 26 -26 -1 -60 -7 -74 -15z"/>
<path d="M6274 5596 c-3 -7 -3 -92 0 -187 3 -96 5 -209 5 -252 l1 -78 33 3 32
3 2 105 c1 58 2 114 3 125 1 18 71 -158 85 -212 4 -18 12 -23 40 -23 19 0 35
4 35 9 0 4 -12 39 -26 77 -14 38 -35 96 -46 130 l-21 61 41 120 c23 65 42 122
42 126 0 12 -58 7 -67 -5 -4 -7 -24 -60 -44 -118 l-36 -105 -7 118 -8 117 -29
0 c-16 0 -32 -6 -35 -14z"/>
<path d="M6940 5583 c0 -16 -2 -134 -3 -263 l-2 -235 30 -1 c17 -1 32 2 35 7
3 5 7 123 9 264 l2 255 -35 0 c-33 0 -36 -3 -36 -27z"/>
<path d="M7502 5463 c-12 -82 -24 -168 -27 -193 -3 -25 -7 -52 -10 -60 -2 -8
-7 -38 -10 -66 -5 -50 -4 -52 22 -57 36 -7 43 -2 43 31 0 15 3 44 7 65 6 37 6
38 47 35 27 -2 41 -8 43 -18 15 -119 11 -110 50 -110 34 0 35 1 29 33 -3 17
-17 118 -31 222 -14 105 -28 207 -31 228 l-6 37 -52 0 -53 0 -21 -147z m93
-65 c7 -57 9 -107 5 -111 -10 -11 -55 -4 -53 8 0 6 3 37 6 70 7 79 18 147 24
141 3 -3 11 -51 18 -108z"/>
<path d="M8350 5345 l0 -265 32 3 33 3 3 262 2 262 -34 0 -35 0 -1 -265z"/>
<path d="M8460 5580 c0 -27 3 -30 34 -30 19 0 36 -6 39 -13 3 -7 6 -109 6
-227 1 -118 6 -219 10 -223 5 -5 19 -7 32 -5 l24 3 3 233 2 232 35 0 c25 0 35
5 40 20 3 11 3 24 0 30 -4 6 -53 10 -116 10 l-109 0 0 -30z"/>
<path d="M8842 5578 c3 -31 5 -33 36 -30 20 2 34 -1 37 -10 3 -7 6 -112 8
-233 l2 -220 30 0 30 0 3 232 2 232 38 3 c32 3 37 7 40 31 l3 27 -116 0 -116
0 3 -32z"/>
<path d="M9136 5593 c-3 -10 -12 -70 -21 -133 -9 -63 -21 -144 -26 -180 -17
-114 -26 -185 -25 -187 1 -1 15 -3 31 -5 30 -3 30 -2 40 62 l11 65 40 3 41 3
9 -63 c9 -62 10 -63 42 -66 38 -4 38 -8 17 138 -9 58 -22 157 -30 220 -22 171
-17 160 -75 160 -38 0 -50 -4 -54 -17z m72 -194 c6 -56 9 -105 6 -110 -7 -13
-41 -11 -49 2 -8 13 14 209 24 209 4 0 12 -46 19 -101z"/>
<path d="M9362 5348 l3 -263 29 -3 c16 -2 32 2 36 9 5 6 6 66 3 133 -3 67 -3
118 1 115 4 -4 96 -246 96 -253 0 -4 61 2 65 5 4 5 -24 90 -45 134 -5 11 -18
44 -29 73 l-20 54 45 125 c24 69 44 127 44 130 0 2 -16 3 -36 1 l-37 -3 -36
-107 c-20 -59 -39 -110 -43 -114 -5 -4 -8 45 -8 109 l0 117 -35 0 -36 0 3
-262z"/>
<path d="M10144 5135 c-8 -33 6 -47 42 -43 25 3 29 7 29 33 0 26 -4 30 -32 33
-28 3 -33 -1 -39 -23z"/>
</g>
</svg>
