<?xml version="1.0" standalone="no"?>
<!DOCTYPE svg PUBLIC "-//W3C//DTD SVG 20010904//EN"
 "http://www.w3.org/TR/2001/REC-SVG-20010904/DTD/svg10.dtd">
<svg version="1.0" xmlns="http://www.w3.org/2000/svg"
 width="700.000000pt" height="700.000000pt" viewBox="0 0 700.000000 700.000000"
 preserveAspectRatio="xMidYMid meet">
<metadata>
Created by potrace 1.14, written by Peter Selinger 2001-2017
</metadata>
<g transform="translate(0.000000,700.000000) scale(0.100000,-0.100000)"
fill="#000000" stroke="none">
<path d="M4080 6140 c-99 -13 -126 -19 -199 -45 -229 -83 -406 -253 -495 -479
-46 -114 -58 -194 -60 -396 l-1 -185 -528 -2 -528 -2 -42 -23 c-72 -40 -86
-81 -103 -292 -3 -44 -7 -88 -9 -98 -2 -10 -7 -55 -11 -101 -3 -45 -8 -85 -11
-90 -2 -4 31 9 74 29 155 71 261 114 280 114 26 0 38 16 42 55 2 17 4 31 6 33
2 3 644 4 795 2 l36 0 -1 -139 0 -140 -32 -33 c-131 -136 -79 -349 101 -408
145 -47 307 74 305 230 -1 71 -15 108 -64 167 l-40 48 -1 137 -1 138 31 0 c17
1 272 1 566 1 l535 1 3 -141 3 -140 -40 -40 c-99 -101 -90 -260 19 -354 73
-62 182 -73 266 -27 55 31 67 44 98 101 51 92 34 204 -42 282 l-37 37 0 140 0
140 60 0 c266 2 768 1 770 -2 6 -6 13 -57 20 -138 3 -41 10 -102 15 -135 5
-33 12 -89 15 -125 4 -36 9 -73 10 -82 2 -9 6 -43 10 -75 3 -32 8 -74 11 -93
3 -19 9 -69 15 -110 6 -41 14 -102 19 -135 6 -33 12 -80 16 -105 3 -25 11 -85
19 -135 8 -49 16 -106 19 -125 6 -41 64 -381 72 -425 3 -16 21 -113 40 -215
20 -102 38 -196 40 -210 9 -48 65 -315 75 -360 6 -25 13 -56 16 -70 2 -14 13
-65 25 -115 11 -49 24 -108 28 -130 5 -22 23 -96 40 -165 17 -69 35 -143 40
-165 5 -22 14 -60 20 -85 7 -25 13 -52 15 -60 2 -8 13 -48 24 -89 11 -41 18
-77 16 -80 -3 -3 -604 -5 -1335 -5 -918 0 -1330 -3 -1331 -11 0 -16 -1 -297 0
-330 l1 -30 1482 0 1483 1 40 22 c22 13 51 38 63 56 40 59 37 95 -23 324 -31
115 -57 218 -60 228 -2 11 -22 96 -45 189 -48 200 -75 317 -102 440 -10 50
-21 99 -24 110 -3 11 -7 31 -10 45 -3 14 -20 97 -39 185 -40 189 -62 297 -70
345 -3 19 -14 80 -25 135 -11 55 -26 141 -35 190 -8 50 -17 101 -20 115 -2 13
-7 42 -10 65 -3 22 -8 47 -10 55 -2 8 -6 33 -10 55 -3 22 -7 51 -10 65 -16 96
-56 364 -60 405 -3 28 -8 57 -10 65 -2 8 -7 44 -10 80 -4 35 -8 67 -10 70 -1
3 -6 39 -10 80 -3 41 -8 82 -10 90 -2 8 -7 44 -10 80 -2 36 -7 74 -9 85 -2 11
-7 58 -11 105 -4 47 -8 92 -10 100 -2 8 -6 51 -9 95 -13 160 -17 179 -44 219
-54 79 -33 76 -627 79 l-529 2 -2 195 c-1 107 -5 205 -8 218 -35 150 -69 234
-135 331 -116 171 -308 302 -506 346 -76 16 -197 23 -265 15z m211 -280 c197
-46 368 -213 418 -410 15 -61 18 -108 17 -245 l-1 -170 -566 -2 -566 -3 3 183
c1 100 5 193 8 207 72 317 377 512 687 440z"/>
<path d="M1173 4349 c-113 -38 -195 -126 -229 -243 -33 -119 9 -263 103 -345
25 -23 50 -41 54 -41 5 0 9 -4 9 -8 0 -5 -132 -8 -292 -8 -180 1 -312 -3 -343
-10 -150 -33 -268 -135 -330 -284 -15 -39 -19 -81 -23 -297 l-4 -253 28 -1
c16 -1 55 -1 87 0 47 1 57 -2 58 -17 1 -9 2 -456 4 -992 1 -536 3 -979 4 -985
0 -7 551 -10 1629 -10 l1627 0 5 1000 5 1000 72 2 c40 0 78 3 86 6 16 6 15
456 -2 500 -6 15 -8 27 -6 27 3 0 -9 28 -26 61 -64 127 -186 220 -318 242 -41
7 -180 12 -351 11 -260 -1 -281 1 -263 15 56 44 71 59 97 93 144 192 42 485
-189 543 -114 28 -164 15 -468 -125 -144 -66 -265 -120 -269 -120 -4 0 -121
52 -260 116 -139 64 -266 121 -283 126 -55 18 -157 16 -212 -3z m304 -240 c87
-39 203 -93 259 -119 l100 -47 -1 -44 -1 -44 -285 -3 c-317 -3 -348 2 -393 61
-64 85 -46 183 44 245 57 38 100 31 277 -49z m1192 40 c94 -69 87 -215 -14
-276 -27 -16 -59 -18 -332 -21 l-303 -3 0 48 0 49 88 39 c48 21 132 60 187 85
112 53 203 94 225 103 34 14 116 1 149 -24z m571 -2133 l0 -841 -1293 2 c-710
0 -1301 2 -1312 2 -20 1 -20 8 -21 834 0 477 4 835 9 838 5 3 595 6 1313 6
l1304 0 0 -841z"/>
</g>
</svg>
